Simulation
nRows=28
nColumns=15
endheader
time  TH_x TH_y TH_z SC_y  SC_z  SC_x  AC_y  AC_z  AC_x  GH_y  GH_z  GH_yy  EL_x  PS_y
0.0  0.000000  0.000000  0.000000  -40.97484877243665  6.293857566463187  5.290427962726946  38.753960701461835  -1.2104947796599697  -7.542639752398697  99.73338478785958  7.005135576093964  -68.93352871539973  22.48966399032193  120.000000
0.05745  0.000000  0.000000  0.000000  -38.812896442194386  4.733753421131443  3.951310529522365  40.42002236810037  -2.124883600939226  -5.8619246365388245  45.64365645083236  6.7305595295975795  -18.84448735041963  21.934609511164552  120.000000
0.1149  0.000000  0.000000  0.000000  -36.788678181737104  3.028015696540427  2.4741550546132003  42.205748880297826  -3.1521370659096313  -4.064842392023784  12.77393359236897  10.658544029218907  10.127428175958  21.545674717466408  120.000000
0.17235  0.000000  0.000000  0.000000  -35.069299514310345  1.1620236592141826  0.9192874585590605  44.089685049557254  -4.368141921911959  -2.0806645435991156  -1.7780869473153398  15.999020427091496  20.983211029167006  21.408682296251815  120.000000
0.2298  0.000000  0.000000  0.000000  -33.76317573837002  -0.8675029450260255  -0.6494878396437785  46.09098775395829  -5.818418931478303  0.1169084354070455  -9.875650681111747  21.89364934610051  25.67427131332346  21.53969390351361  120.000000
0.28725  0.000000  0.000000  0.000000  -32.91093323561566  -3.0111060118837  -2.1602889085622055  48.16213889269934  -7.461374895116615  2.4778710407380586  -15.199232139109737  28.0813531202204  27.905340527579316  21.873205524163737  120.000000
0.3447  0.000000  0.000000  0.000000  -32.464037767467545  -5.105330539872303  -3.478210357063522  50.16154831393756  -9.21093067528275  4.872982534642073  -18.991515666178994  34.30457705624869  28.916403192888033  22.305500570104968  120.000000
0.40215  0.000000  0.000000  0.000000  -32.32611981696171  -6.904664795353498  -4.506757397402953  51.94106434218574  -10.89364640437191  7.161449293702085  -21.72216425969702  40.281078844991654  29.147629805074057  22.722100498355257  120.000000
0.4596  0.000000  0.000000  0.000000  -32.404049904124115  -8.162436654617352  -5.269729890012226  53.434421794693876  -12.228443292105021  9.238962034771118  -23.59566198381894  45.781433693894066  28.756256971382832  23.03223540567778  120.000000
0.51705  0.000000  0.000000  0.000000  -32.62948216793966  -8.742023180170303  -5.842907185349995  54.666650297958604  -12.92249825354636  11.018428707603348  -24.745616923954245  50.66718811759749  27.818316329941453  23.18151526194737  120.000000
0.5745  0.000000  0.000000  0.000000  -32.95698589368294  -8.631297364116321  -6.305307655577743  55.70873931657018  -12.780070891318607  12.464806306521467  -25.329767924031714  54.86428925193447  26.429484945523686  23.14717993243559  120.000000
0.63195  0.000000  0.000000  0.000000  -33.39876723761264  -7.895381321640701  -6.7464220916295154  56.624492895171265  -11.71720784630104  13.618947788478955  -25.516339789906386  58.33000470356081  24.718541923107882  22.932907059642037  120.000000
0.6894  0.000000  0.000000  0.000000  -34.074701016637654  -6.655170294885693  -7.252132545393502  57.462488396779555  -9.742908123612219  14.572132508179426  -25.3935119527736  61.04466525106613  22.801391859142026  22.567857049156938  120.000000
0.74685  0.000000  0.000000  0.000000  -35.16444346410395  -5.077162965939254  -7.8715209615408686  58.26409529439828  -6.940921570672835  15.431773044972878  -24.934770863464518  63.01863955613273  20.7407829724834  22.103215668783584  120.000000
0.8043  0.000000  0.000000  0.000000  -36.749184201104825  -3.3355257673099428  -8.580933514196708  59.04240330922733  -3.4418106310208634  16.267454370582943  -24.09725756486387  64.2919434449363  18.552896602780887  21.594851114579406  120.000000
0.86175  0.000000  0.000000  0.000000  -38.707910466111535  -1.5884450730036654  -9.28551230849388  59.76763269555265  0.5769567699462966  17.090334829586165  -22.936785692727668  64.93873081556978  16.244295213424895  21.075240614970546  120.000000
0.9192  0.000000  0.000000  0.000000  -40.79676911381688  0.03475988741164441  -9.861504146439461  60.38141625494938  4.889373535748752  17.877584268876472  -21.601246201164933  65.0615069346769  13.838002924337173  20.560679669132227  120.000000
0.97665  0.000000  0.000000  0.000000  -42.76971744888947  1.4741082525201885  -10.188265842893589  60.83397142449078  9.236263460421062  18.59776916525321  -20.25247217756933  64.79900351033166  11.37955155037845  20.06415350532405  120.000000
1.0341  0.000000  0.000000  0.000000  -44.45954264204578  2.7355442452680196  -10.149794076862994  61.09691904619852  13.351487925724557  19.240545735250414  -19.00387855347813  64.3245940615749  8.94614985672775  19.595379761537195  120.000000
1.09155  0.000000  0.000000  0.000000  -45.80313868797472  3.867789757800547  -9.659338526234844  61.17186938438161  16.99001940975245  19.8184531128001  -17.903747227710923  63.80958536603024  6.647995366187102  19.159365986468877  120.000000
1.149  0.000000  0.000000  0.000000  -46.82084361859213  4.928828418682356  -8.685342466614095  61.08827885660074  19.967637775767333  20.348271433857068  -16.95297580492814  63.388517924630186  4.606638595214228  18.75496235238446  120.000000
1.20645  0.000000  0.000000  0.000000  -47.58952999826567  5.9512385248029185  -7.266476269955445  60.890209736889936  22.195468391602507  20.839346406822703  -16.12536605410754  63.139176342524216  2.917562242204137  18.37932603195536  120.000000
1.2639  0.000000  0.000000  0.000000  -48.1996193946222  6.9332726857133915  -5.516038023845149  60.631153460251326  23.686292668250857  21.281774307515587  -15.38968905320072  63.08008205931652  1.6195934111320494  18.030035870908975  120.000000
1.32135  0.000000  0.000000  0.000000  -48.72026783344344  7.837698312891317  -3.601226376345276  60.36463638288809  24.537426891834873  21.652114947042048  -14.722123806780084  63.18232261469477  0.6848592260610623  17.70951870843306  120.000000
1.3788  0.000000  0.000000  0.000000  -49.17771758019516  8.611391700682045  -1.7166795557895798  60.13827131531731  24.896512007781467  21.918189513742632  -14.116836878576509  63.388815326397975  0.03423807272269504  17.423311862971765  120.000000
1.43625  0.000000  0.000000  0.000000  -49.56000400119733  9.200576167750588  -0.052320798945967785  59.988575196670304  24.920490449331943  22.05310332738668  -13.584366792288787  63.6353964031064  -0.4335910520290729  17.17939195387378  120.000000
1.4937  0.000000  0.000000  0.000000  -49.83495495384734  9.565058244588755  1.2265660778284162  59.941252903771534  24.74304452316589  22.041658708917996  -13.145978384765463  63.86448271542065  -0.8135671121454411  16.98559727879399  120.000000
1.55115  0.000000  0.000000  0.000000  -49.9727221742323  9.684994111210086  1.9924551339167345  60.01250048962707  24.452954405529876  21.88524217279246  -12.824819610641688  64.03339410716482  -1.1735775286828756  16.847874550931873  120.000000
